{
	"asset":{
		"generator":"Khronos glTF Blender I/O v3.5.30",
		"version":"2.0"
	},
	"extensionsUsed":[
		"KHR_materials_emissive_strength"
	],
	"scene":0,
	"scenes":[
		{
			"name":"Scene",
			"nodes":[
				8
			]
		}
	],
	"nodes":[
		{
			"mesh":0,
			"name":"Column"
		},
		{
			"mesh":1,
			"name":"Door"
		},
		{
			"mesh":2,
			"name":"loc:back"
		},
		{
			"mesh":3,
			"name":"loc:front"
		},
		{
			"mesh":4,
			"name":"loc:left"
		},
		{
			"mesh":5,
			"name":"loc:right",
			"rotation":[
				0,
				-1,
				0,
				7.549790126404332e-08
			]
		},
		{
			"mesh":6,
			"name":"Roof",
			"scale":[
				1,
				1,
				2.7294766902923584
			],
			"translation":[
				0,
				2.5,
				0
			]
		},
		{
			"mesh":7,
			"name":"Wall"
		},
		{
			"children":[
				0,
				1,
				2,
				3,
				4,
				5,
				6,
				7
			],
			"mesh":8,
			"name":"House"
		}
	],
	"materials":[
		{
			"doubleSided":true,
			"emissiveFactor":[
				1,
				1,
				1
			],
			"emissiveTexture":{
				"index":0
			},
			"name":"Column",
			"normalTexture":{
				"index":1
			},
			"pbrMetallicRoughness":{
				"baseColorTexture":{
					"index":2
				},
				"metallicRoughnessTexture":{
					"index":3
				}
			}
		},
		{
			"doubleSided":true,
			"emissiveFactor":[
				1,
				1,
				1
			],
			"emissiveTexture":{
				"index":4
			},
			"name":"Door",
			"normalTexture":{
				"index":5
			},
			"pbrMetallicRoughness":{
				"baseColorTexture":{
					"index":6
				},
				"metallicRoughnessTexture":{
					"index":7
				}
			}
		},
		{
			"doubleSided":true,
			"emissiveFactor":[
				1,
				1,
				1
			],
			"emissiveTexture":{
				"index":8
			},
			"extensions":{
				"KHR_materials_emissive_strength":{
					"emissiveStrength":100
				}
			},
			"name":"Door light",
			"normalTexture":{
				"index":9
			},
			"pbrMetallicRoughness":{
				"baseColorTexture":{
					"index":10
				},
				"metallicRoughnessTexture":{
					"index":11
				}
			}
		},
		{
			"doubleSided":true,
			"emissiveFactor":[
				1,
				1,
				1
			],
			"emissiveTexture":{
				"index":12
			},
			"name":"Roof",
			"normalTexture":{
				"index":13
			},
			"pbrMetallicRoughness":{
				"baseColorTexture":{
					"index":14
				},
				"metallicRoughnessTexture":{
					"index":15
				}
			}
		},
		{
			"doubleSided":true,
			"emissiveFactor":[
				1,
				1,
				1
			],
			"emissiveTexture":{
				"index":16
			},
			"name":"Wall",
			"normalTexture":{
				"index":17
			},
			"pbrMetallicRoughness":{
				"baseColorTexture":{
					"index":18
				},
				"metallicRoughnessTexture":{
					"index":19
				}
			}
		},
		{
			"doubleSided":true,
			"emissiveFactor":[
				1,
				1,
				1
			],
			"emissiveTexture":{
				"index":20
			},
			"name":"Plinth",
			"normalTexture":{
				"index":21
			},
			"pbrMetallicRoughness":{
				"baseColorTexture":{
					"index":22
				},
				"metallicRoughnessTexture":{
					"index":23
				}
			}
		}
	],
	"meshes":[
		{
			"name":"Column",
			"primitives":[
				{
					"attributes":{
						"POSITION":0,
						"TEXCOORD_0":1,
						"NORMAL":2
					},
					"indices":3,
					"material":0
				}
			]
		},
		{
			"name":"Door",
			"primitives":[
				{
					"attributes":{
						"POSITION":4,
						"TEXCOORD_0":5,
						"NORMAL":6
					},
					"indices":7,
					"material":1
				},
				{
					"attributes":{
						"POSITION":8,
						"TEXCOORD_0":9,
						"NORMAL":10
					},
					"indices":11,
					"material":2
				}
			]
		},
		{
			"name":"Plane.003",
			"primitives":[
				{
					"attributes":{
						"POSITION":12
					},
					"indices":13,
					"mode":1
				}
			]
		},
		{
			"name":"Plane.002",
			"primitives":[
				{
					"attributes":{
						"POSITION":14
					},
					"indices":13,
					"mode":1
				}
			]
		},
		{
			"name":"Plane.004",
			"primitives":[
				{
					"attributes":{
						"POSITION":15
					},
					"indices":13,
					"mode":1
				}
			]
		},
		{
			"name":"Plane.005",
			"primitives":[
				{
					"attributes":{
						"POSITION":16
					},
					"indices":13,
					"mode":1
				}
			]
		},
		{
			"name":"Roof",
			"primitives":[
				{
					"attributes":{
						"POSITION":17,
						"TEXCOORD_0":18,
						"NORMAL":19
					},
					"indices":20,
					"material":3
				}
			]
		},
		{
			"name":"Wall",
			"primitives":[
				{
					"attributes":{
						"POSITION":21,
						"TEXCOORD_0":22,
						"NORMAL":23
					},
					"indices":24,
					"material":4
				}
			]
		},
		{
			"name":"Plinth",
			"primitives":[
				{
					"attributes":{
						"POSITION":25,
						"TEXCOORD_0":26,
						"NORMAL":27
					},
					"indices":28,
					"material":5
				}
			]
		}
	],
	"textures":[
		{
			"sampler":0,
			"source":0
		},
		{
			"sampler":0,
			"source":1
		},
		{
			"sampler":0,
			"source":2
		},
		{
			"sampler":0,
			"source":3
		},
		{
			"sampler":0,
			"source":4
		},
		{
			"sampler":0,
			"source":5
		},
		{
			"sampler":0,
			"source":6
		},
		{
			"sampler":0,
			"source":7
		},
		{
			"sampler":0,
			"source":8
		},
		{
			"sampler":0,
			"source":9
		},
		{
			"sampler":0,
			"source":10
		},
		{
			"sampler":0,
			"source":11
		},
		{
			"sampler":0,
			"source":12
		},
		{
			"sampler":0,
			"source":13
		},
		{
			"sampler":0,
			"source":14
		},
		{
			"sampler":0,
			"source":15
		},
		{
			"sampler":0,
			"source":16
		},
		{
			"sampler":0,
			"source":17
		},
		{
			"sampler":0,
			"source":18
		},
		{
			"sampler":0,
			"source":19
		},
		{
			"sampler":0,
			"source":20
		},
		{
			"sampler":0,
			"source":21
		},
		{
			"sampler":0,
			"source":22
		},
		{
			"sampler":0,
			"source":23
		}
	],
	"images":[
		{
			"mimeType":"image/png",
			"name":"Column_Emission.1001.png",
			"uri":"Column_Emission_1001_png.png"
		},
		{
			"mimeType":"image/png",
			"name":"Column_Normal.1001.png",
			"uri":"Column_Normal_1001_png.png"
		},
		{
			"mimeType":"image/png",
			"name":"Column_BaseColor.1001.png-Column_Alpha.1001.png",
			"uri":"Column_BaseColor_1001_png-Column_Alpha_1001_png.png"
		},
		{
			"mimeType":"image/png",
			"name":"Column_Metallic.1001.png-Column_Roughness.1001.png",
			"uri":"Column_Metallic_1001_png-Column_Roughness_1001_png.png"
		},
		{
			"mimeType":"image/png",
			"name":"Door_Emission.1001",
			"uri":"Door_Emission_1001.png"
		},
		{
			"mimeType":"image/png",
			"name":"Door_Normal.1001",
			"uri":"Door_Normal_1001.png"
		},
		{
			"mimeType":"image/png",
			"name":"Door_BaseColor.1001-Door_Alpha.1001",
			"uri":"Door_BaseColor_1001-Door_Alpha_1001.png"
		},
		{
			"mimeType":"image/png",
			"name":"Door_Metallic.1001-Door_Roughness.1001",
			"uri":"Door_Metallic_1001-Door_Roughness_1001.png"
		},
		{
			"mimeType":"image/png",
			"name":"Door light_Emission.1001",
			"uri":"Door%20light_Emission_1001.png"
		},
		{
			"mimeType":"image/png",
			"name":"Door light_Normal.1001",
			"uri":"Door%20light_Normal_1001.png"
		},
		{
			"mimeType":"image/png",
			"name":"Door light_BaseColor.1001-Door light_Alpha.1001",
			"uri":"Door%20light_BaseColor_1001-Door%20light_Alpha_1001.png"
		},
		{
			"mimeType":"image/png",
			"name":"Door light_Metallic.1001-Door light_Roughness.1001",
			"uri":"Door%20light_Metallic_1001-Door%20light_Roughness_1001.png"
		},
		{
			"mimeType":"image/png",
			"name":"Roof_Emission.1001",
			"uri":"Roof_Emission_1001.png"
		},
		{
			"mimeType":"image/png",
			"name":"Roof_Normal.1001",
			"uri":"Roof_Normal_1001.png"
		},
		{
			"mimeType":"image/png",
			"name":"Roof_BaseColor.1001-Roof_Alpha.1001",
			"uri":"Roof_BaseColor_1001-Roof_Alpha_1001.png"
		},
		{
			"mimeType":"image/png",
			"name":"Roof_Metallic.1001-Roof_Roughness.1001",
			"uri":"Roof_Metallic_1001-Roof_Roughness_1001.png"
		},
		{
			"mimeType":"image/png",
			"name":"Wall_Emission.1001.png",
			"uri":"Wall_Emission_1001_png.png"
		},
		{
			"mimeType":"image/png",
			"name":"Wall_Normal.1001.png",
			"uri":"Wall_Normal_1001_png.png"
		},
		{
			"mimeType":"image/png",
			"name":"Wall_BaseColor.1001.png-Wall_Alpha.1001.png",
			"uri":"Wall_BaseColor_1001_png-Wall_Alpha_1001_png.png"
		},
		{
			"mimeType":"image/png",
			"name":"Wall_Metallic.1001.png-Wall_Roughness.1001.png",
			"uri":"Wall_Metallic_1001_png-Wall_Roughness_1001_png.png"
		},
		{
			"mimeType":"image/png",
			"name":"Plinth_Emission.1001.png",
			"uri":"Plinth_Emission_1001_png.png"
		},
		{
			"mimeType":"image/png",
			"name":"Plinth_Normal.1001.png",
			"uri":"Plinth_Normal_1001_png.png"
		},
		{
			"mimeType":"image/png",
			"name":"Plinth_BaseColor.1001.png-Plinth_Alpha.1001.png",
			"uri":"Plinth_BaseColor_1001_png-Plinth_Alpha_1001_png.png"
		},
		{
			"mimeType":"image/png",
			"name":"Plinth_Metallic.1001.png-Plinth_Roughness.1001.png",
			"uri":"Plinth_Metallic_1001_png-Plinth_Roughness_1001_png.png"
		}
	],
	"accessors":[
		{
			"bufferView":0,
			"componentType":5126,
			"count":64,
			"max":[
				1.5,
				2.569608449935913,
				2.5
			],
			"min":[
				-1.5,
				0.45000001788139343,
				-2.5
			],
			"type":"VEC3"
		},
		{
			"bufferView":1,
			"componentType":5126,
			"count":64,
			"type":"VEC2"
		},
		{
			"bufferView":2,
			"componentType":5126,
			"count":64,
			"type":"VEC3"
		},
		{
			"bufferView":3,
			"componentType":5123,
			"count":96,
			"type":"SCALAR"
		},
		{
			"bufferView":4,
			"componentType":5126,
			"count":254,
			"max":[
				1.5,
				1.7999999523162842,
				0.5
			],
			"min":[
				1.4500000476837158,
				0,
				-0.5
			],
			"type":"VEC3"
		},
		{
			"bufferView":5,
			"componentType":5126,
			"count":254,
			"type":"VEC2"
		},
		{
			"bufferView":6,
			"componentType":5126,
			"count":254,
			"type":"VEC3"
		},
		{
			"bufferView":7,
			"componentType":5123,
			"count":540,
			"type":"SCALAR"
		},
		{
			"bufferView":8,
			"componentType":5126,
			"count":80,
			"max":[
				1.4914207458496094,
				1.6999999284744263,
				0.27435895800590515
			],
			"min":[
				1.472098708152771,
				0,
				-0.27242961525917053
			],
			"type":"VEC3"
		},
		{
			"bufferView":9,
			"componentType":5126,
			"count":80,
			"type":"VEC2"
		},
		{
			"bufferView":10,
			"componentType":5126,
			"count":80,
			"type":"VEC3"
		},
		{
			"bufferView":11,
			"componentType":5123,
			"count":120,
			"type":"SCALAR"
		},
		{
			"bufferView":12,
			"componentType":5126,
			"count":4,
			"max":[
				-1.499999761581421,
				2.3999998569488525,
				2.500000238418579
			],
			"min":[
				-1.5000004768371582,
				5.699933306244206e-15,
				-2.499999761581421
			],
			"type":"VEC3"
		},
		{
			"bufferView":13,
			"componentType":5123,
			"count":8,
			"type":"SCALAR"
		},
		{
			"bufferView":14,
			"componentType":5126,
			"count":4,
			"max":[
				1.5000001192092896,
				2.3999998569488525,
				2.5
			],
			"min":[
				1.5000001192092896,
				5.699933306244206e-15,
				-2.5
			],
			"type":"VEC3"
		},
		{
			"bufferView":15,
			"componentType":5126,
			"count":4,
			"max":[
				1.500000238418579,
				2.3999998569488525,
				2.5
			],
			"min":[
				-1.4999998807907104,
				5.699933306244206e-15,
				2.5
			],
			"type":"VEC3"
		},
		{
			"bufferView":16,
			"componentType":5126,
			"count":4,
			"max":[
				1.500000238418579,
				2.3999998569488525,
				2.5
			],
			"min":[
				-1.4999998807907104,
				5.699933306244206e-15,
				2.5
			],
			"type":"VEC3"
		},
		{
			"bufferView":17,
			"componentType":5126,
			"count":1834,
			"max":[
				1.8774712085723877,
				0.5624145269393921,
				1
			],
			"min":[
				-1.8774712085723877,
				-0.13337984681129456,
				-1
			],
			"type":"VEC3"
		},
		{
			"bufferView":18,
			"componentType":5126,
			"count":1834,
			"type":"VEC2"
		},
		{
			"bufferView":19,
			"componentType":5126,
			"count":1834,
			"type":"VEC3"
		},
		{
			"bufferView":20,
			"componentType":5123,
			"count":3948,
			"type":"SCALAR"
		},
		{
			"bufferView":21,
			"componentType":5126,
			"count":28,
			"max":[
				1.4500000476837158,
				3.0281543731689453,
				2.450000047683716
			],
			"min":[
				-1.4500000476837158,
				0.45000001788139343,
				-2.450000047683716
			],
			"type":"VEC3"
		},
		{
			"bufferView":22,
			"componentType":5126,
			"count":28,
			"type":"VEC2"
		},
		{
			"bufferView":23,
			"componentType":5126,
			"count":28,
			"type":"VEC3"
		},
		{
			"bufferView":24,
			"componentType":5123,
			"count":60,
			"type":"SCALAR"
		},
		{
			"bufferView":25,
			"componentType":5126,
			"count":56,
			"max":[
				1.5,
				0.45000001788139343,
				2.5
			],
			"min":[
				-1.5,
				-1.4901161193847656e-08,
				-2.5
			],
			"type":"VEC3"
		},
		{
			"bufferView":26,
			"componentType":5126,
			"count":56,
			"type":"VEC2"
		},
		{
			"bufferView":27,
			"componentType":5126,
			"count":56,
			"type":"VEC3"
		},
		{
			"bufferView":28,
			"componentType":5123,
			"count":108,
			"type":"SCALAR"
		}
	],
	"bufferViews":[
		{
			"buffer":0,
			"byteLength":768,
			"byteOffset":0,
			"target":34962
		},
		{
			"buffer":0,
			"byteLength":512,
			"byteOffset":768,
			"target":34962
		},
		{
			"buffer":0,
			"byteLength":768,
			"byteOffset":1280,
			"target":34962
		},
		{
			"buffer":0,
			"byteLength":192,
			"byteOffset":2048,
			"target":34963
		},
		{
			"buffer":0,
			"byteLength":3048,
			"byteOffset":2240,
			"target":34962
		},
		{
			"buffer":0,
			"byteLength":2032,
			"byteOffset":5288,
			"target":34962
		},
		{
			"buffer":0,
			"byteLength":3048,
			"byteOffset":7320,
			"target":34962
		},
		{
			"buffer":0,
			"byteLength":1080,
			"byteOffset":10368,
			"target":34963
		},
		{
			"buffer":0,
			"byteLength":960,
			"byteOffset":11448,
			"target":34962
		},
		{
			"buffer":0,
			"byteLength":640,
			"byteOffset":12408,
			"target":34962
		},
		{
			"buffer":0,
			"byteLength":960,
			"byteOffset":13048,
			"target":34962
		},
		{
			"buffer":0,
			"byteLength":240,
			"byteOffset":14008,
			"target":34963
		},
		{
			"buffer":0,
			"byteLength":48,
			"byteOffset":14248,
			"target":34962
		},
		{
			"buffer":0,
			"byteLength":16,
			"byteOffset":14296,
			"target":34963
		},
		{
			"buffer":0,
			"byteLength":48,
			"byteOffset":14312,
			"target":34962
		},
		{
			"buffer":0,
			"byteLength":48,
			"byteOffset":14360,
			"target":34962
		},
		{
			"buffer":0,
			"byteLength":48,
			"byteOffset":14408,
			"target":34962
		},
		{
			"buffer":0,
			"byteLength":22008,
			"byteOffset":14456,
			"target":34962
		},
		{
			"buffer":0,
			"byteLength":14672,
			"byteOffset":36464,
			"target":34962
		},
		{
			"buffer":0,
			"byteLength":22008,
			"byteOffset":51136,
			"target":34962
		},
		{
			"buffer":0,
			"byteLength":7896,
			"byteOffset":73144,
			"target":34963
		},
		{
			"buffer":0,
			"byteLength":336,
			"byteOffset":81040,
			"target":34962
		},
		{
			"buffer":0,
			"byteLength":224,
			"byteOffset":81376,
			"target":34962
		},
		{
			"buffer":0,
			"byteLength":336,
			"byteOffset":81600,
			"target":34962
		},
		{
			"buffer":0,
			"byteLength":120,
			"byteOffset":81936,
			"target":34963
		},
		{
			"buffer":0,
			"byteLength":672,
			"byteOffset":82056,
			"target":34962
		},
		{
			"buffer":0,
			"byteLength":448,
			"byteOffset":82728,
			"target":34962
		},
		{
			"buffer":0,
			"byteLength":672,
			"byteOffset":83176,
			"target":34962
		},
		{
			"buffer":0,
			"byteLength":216,
			"byteOffset":83848,
			"target":34963
		}
	],
	"samplers":[
		{
			"magFilter":9729,
			"minFilter":9987
		}
	],
	"buffers":[
		{
			"byteLength":84064,
			"uri":"house.bin"
		}
	]
}
